<?xml version="1.0" encoding="utf-8"?>
<!-- Generator: Adobe Illustrator 23.0.3, SVG Export Plug-In . SVG Version: 6.00 Build 0)  -->
<svg version="1.1" id="图层_1" xmlns="http://www.w3.org/2000/svg" xmlns:xlink="http://www.w3.org/1999/xlink" x="0px" y="0px"
	 viewBox="0 0 160 64" style="enable-background:new 0 0 160 64;" xml:space="preserve">
<style type="text/css">
	.st0{fill:#B7BBBD;}
	.st1{fill:url(#SVGID_1_);}
</style>
<path class="st0" d="M36.6,7H51l2,2.1v45.8L51,57H31.4l1-1.6h17.9l1.1-1.2V9.7l-1.1-1.2H38l-1.5,7.7H35l1.4-7.8L36.6,7L36.6,7z
	 M2,57l-2-2.1V9.1L2,7h20.3l-1,1.6H2.7L1.5,9.7v44.5l1.1,1.2h14.8L17.2,57H2z M5.1,51.8h8.7l-0.3,1.6H4.1l-0.5-0.5v-9.4l1.5,3.1
	L5.1,51.8L5.1,51.8z M39.8,51.8l1.5,1.6h-7.6l1-1.6H39.8z"/>
<linearGradient id="SVGID_1_" gradientUnits="userSpaceOnUse" x1="60.0534" y1="57.4342" x2="-2.2046" y2="17.8602" gradientTransform="matrix(1 0 0 -1 0 66)">
	<stop  offset="0" style="stop-color:#FBB743"/>
	<stop  offset="1" style="stop-color:#EA6B00"/>
</linearGradient>
<path class="st1" d="M23.3,38.2H9.2L7.4,35L31.2,0l3.7,1.5l-4.7,24.3h14L46,29L23.3,64l-3.8-1.4C19.5,62.6,23.3,38.2,23.3,38.2z
	 M5.5,14.5c-0.4,0-0.8-0.2-1.1-0.5c-0.6-0.6-0.6-1.6,0-2.2c0.3-0.3,0.7-0.5,1.1-0.5c0.4,0,0.8,0.2,1.1,0.5c0.6,0.6,0.6,1.6,0,2.2
	C6.4,14.4,6,14.5,5.5,14.5z M9.7,14.5c-0.4,0-0.8-0.2-1.1-0.5c-0.6-0.6-0.6-1.6,0-2.2c0.3-0.3,0.7-0.5,1.1-0.5
	c0.4,0,0.8,0.2,1.1,0.5c0.6,0.6,0.6,1.6,0,2.2c0,0,0,0,0,0C10.5,14.4,10.1,14.5,9.7,14.5L9.7,14.5z M13.8,14.5
	c-0.4,0-0.8-0.2-1.1-0.5c-0.6-0.6-0.6-1.6,0-2.2c0.3-0.3,0.7-0.5,1.1-0.5c0.4,0,0.8,0.2,1.1,0.5c0.6,0.6,0.6,1.6,0,2.2c0,0,0,0,0,0
	C14.6,14.4,14.2,14.5,13.8,14.5L13.8,14.5z"/>
</svg>
