<?xml version="1.0" standalone="no"?><!DOCTYPE svg PUBLIC "-//W3C//DTD SVG 1.1//EN" "http://www.w3.org/Graphics/SVG/1.1/DTD/svg11.dtd"><svg t="1630337440675" class="icon" viewBox="0 0 1031 1024" version="1.1" xmlns="http://www.w3.org/2000/svg" p-id="728" xmlns:xlink="http://www.w3.org/1999/xlink" width="201.3671875" height="200"><defs><style type="text/css"></style></defs><path d="M505.994758 1024a40.178922 40.178922 0 0 1-40.178922-40.178922v-255.136153a40.178922 40.178922 0 0 1 6.930864-22.580554L929.922561 32.725732A40.178922 40.178922 0 1 1 996.478945 77.86675L546.17368 740.999765v242.821313a40.178922 40.178922 0 0 1-40.178922 40.178922z" fill="#FF9041" p-id="729"></path><path d="M991.536938 1008.892725a39.957938 39.957938 0 0 1-19.567135-5.102723L638.886542 817.841952a40.178922 40.178922 0 0 1 39.174448-70.172486l273.377384 152.679902V100.447304L131.969175 442.932433l277.576081 154.929923a40.178922 40.178922 0 1 1-39.154359 70.152397l-349.757514-195.209291a40.178922 40.178922 0 0 1 4.017892-72.161344L976.047964 3.113866A40.178922 40.178922 0 0 1 1031.71586 40.178922v928.534882a40.178922 40.178922 0 0 1-40.178922 40.178921z" fill="#3390FF" p-id="730"></path></svg>